<?xml version="1.0" standalone="no"?>
<!DOCTYPE svg PUBLIC "-//W3C//DTD SVG 20010904//EN"
 "http://www.w3.org/TR/2001/REC-SVG-20010904/DTD/svg10.dtd">
<svg version="1.0" xmlns="http://www.w3.org/2000/svg"
 width="2048.000000pt" height="2048.000000pt" viewBox="0 0 2048.000000 2048.000000"
 preserveAspectRatio="xMidYMid meet">

<g transform="translate(0.000000,2048.000000) scale(0.100000,-0.100000)"
fill="#000000" stroke="none">
<path d="M7675 15758 c-38 -4 -149 -15 -245 -23 -180 -15 -426 -48 -470 -64
-14 -5 -54 -14 -90 -21 -36 -7 -85 -18 -110 -25 -25 -8 -79 -24 -120 -36 -166
-48 -317 -101 -405 -143 -27 -13 -95 -45 -150 -71 -55 -26 -109 -54 -120 -63
-11 -10 -36 -26 -55 -36 -54 -29 -228 -158 -295 -217 -116 -105 -197 -192
-268 -289 -26 -36 -54 -73 -62 -83 -8 -9 -15 -20 -15 -23 0 -3 -8 -18 -19 -32
-66 -94 -148 -275 -186 -414 -8 -25 -18 -55 -24 -66 -6 -11 -18 -62 -26 -114
-8 -51 -21 -111 -27 -133 -8 -29 -13 -376 -18 -1260 -4 -843 -9 -1231 -17
-1255 -54 -171 -112 -270 -211 -359 -136 -122 -347 -201 -538 -201 -40 0 -66
-5 -73 -14 -8 -9 -10 -168 -9 -572 l3 -559 97 -6 c54 -4 106 -10 115 -14 10
-4 47 -13 82 -21 134 -29 271 -109 374 -218 79 -84 119 -154 160 -286 8 -24
13 -415 17 -1265 5 -1116 7 -1237 23 -1305 9 -41 23 -106 31 -145 16 -79 19
-89 89 -273 28 -73 54 -135 59 -138 4 -3 16 -25 27 -49 48 -109 215 -328 343
-451 107 -102 279 -234 407 -310 69 -42 341 -174 357 -174 4 0 140 -50 189
-70 11 -5 43 -15 70 -23 28 -8 75 -22 105 -31 30 -9 84 -22 120 -30 36 -8 79
-19 95 -25 17 -6 73 -17 125 -25 52 -8 115 -20 140 -25 130 -31 785 -73 817
-53 13 9 -10 773 -27 863 -5 30 -10 103 -10 161 l0 105 -152 7 c-190 9 -289
19 -493 52 -206 33 -460 98 -490 125 -5 5 -16 9 -25 9 -8 0 -28 7 -44 15 -15
8 -33 15 -39 15 -6 0 -18 6 -26 13 -9 8 -31 20 -49 27 -66 26 -243 152 -303
216 -56 60 -129 164 -129 185 0 10 -4 20 -9 23 -12 8 -37 91 -56 188 -13 66
-15 240 -15 1230 0 1098 -1 1158 -20 1263 -38 214 -119 442 -218 610 -36 62
-128 201 -147 222 -5 6 -21 26 -35 44 -14 18 -44 53 -67 78 -23 25 -43 50 -43
55 0 5 31 45 68 90 226 271 356 538 435 896 20 93 21 125 27 1300 4 865 9
1215 17 1240 6 19 17 55 23 80 42 164 173 327 355 441 115 72 305 159 405 184
14 3 54 14 90 24 219 62 484 101 745 110 l190 6 7 125 c4 69 10 152 13 185 14
148 32 811 23 823 -12 14 -180 14 -293 0z"/>
<path d="M12546 15755 c-11 -11 -14 -24 -10 -34 5 -9 9 -70 11 -136 6 -231 35
-950 38 -956 3 -3 96 -9 207 -12 112 -4 228 -11 258 -16 30 -5 102 -17 160
-26 512 -79 897 -264 1067 -512 53 -77 50 -71 78 -145 56 -144 54 -111 60
-1368 4 -646 11 -1205 16 -1254 10 -90 49 -254 75 -313 8 -17 14 -36 14 -41 0
-33 93 -225 173 -357 64 -105 220 -305 239 -305 25 0 0 -51 -60 -123 -80 -97
-142 -181 -166 -222 -10 -17 -30 -52 -46 -80 -117 -202 -213 -494 -239 -730
-8 -68 -11 -463 -11 -1220 0 -1066 -1 -1124 -19 -1195 -58 -230 -169 -378
-381 -512 -119 -74 -389 -186 -490 -203 -25 -4 -52 -11 -61 -16 -51 -27 -494
-85 -721 -95 l-158 -6 0 -37 c0 -20 -7 -189 -15 -376 -8 -187 -15 -403 -15
-480 0 -77 -5 -158 -10 -180 -15 -68 -12 -69 205 -61 104 4 213 11 240 16 28
5 115 14 195 20 80 7 163 16 185 21 22 5 94 18 159 29 66 11 124 24 130 30 5
5 21 10 34 10 43 0 371 97 424 126 14 8 32 14 39 14 15 0 241 101 328 147 191
102 325 199 490 358 162 156 282 318 374 504 62 126 68 140 102 251 43 141 53
181 69 275 34 201 38 366 31 1410 -5 738 -4 1039 4 1090 43 266 191 457 436
563 39 17 93 33 120 37 28 4 59 12 69 18 11 5 65 13 120 16 l101 6 3 564 c2
445 0 566 -10 573 -7 4 -42 8 -78 8 -167 1 -388 73 -495 162 -64 53 -152 147
-170 181 -9 18 -24 46 -33 62 -9 17 -25 53 -36 80 -20 49 -21 81 -27 1250 -7
1182 -9 1251 -43 1435 -83 450 -339 864 -703 1138 -103 77 -181 132 -189 132
-3 0 -19 10 -36 21 -45 32 -282 150 -376 187 -186 73 -404 141 -557 172 -33 7
-82 18 -110 25 -27 7 -90 18 -140 25 -49 6 -115 16 -145 21 -66 12 -397 38
-566 46 -106 5 -122 3 -138 -12z"/>
<path d="M10210 11934 c-14 -2 -79 -11 -145 -20 -185 -24 -347 -63 -495 -117
-111 -40 -326 -151 -383 -197 -7 -5 -46 -36 -87 -68 -109 -86 -235 -228 -309
-352 -60 -100 -161 -326 -161 -360 0 -10 -7 -36 -15 -60 -38 -108 -59 -289
-59 -515 -1 -312 36 -515 137 -750 103 -238 320 -493 530 -621 118 -72 239
-134 260 -134 7 0 17 -4 22 -9 9 -9 128 -48 256 -85 31 -9 123 -28 205 -43
141 -25 166 -26 474 -27 315 0 329 1 460 27 74 15 160 35 190 44 97 28 204 64
237 79 17 8 34 14 38 14 3 0 44 16 91 36 l84 36 0 439 0 439 -71 0 -71 0 -56
-51 c-211 -193 -373 -273 -672 -330 -85 -17 -368 -5 -460 19 -167 43 -314 135
-409 256 -105 134 -154 272 -178 494 -14 133 -15 172 -4 290 11 121 48 296 71
341 5 9 23 45 41 81 79 159 213 287 370 351 204 84 482 88 736 10 154 -48 419
-206 517 -310 28 -29 34 -31 108 -31 l78 0 0 438 0 439 -92 38 c-125 51 -213
84 -273 101 -300 85 -427 105 -715 109 -124 2 -236 2 -250 -1z"/>
</g>
</svg>
